<svg width="65" height="43" viewBox="0 0 65 43" fill="none" xmlns="http://www.w3.org/2000/svg">
<path d="M0.228014 28.8109C0.228014 26.9727 0.150785 25.3518 0 23.9483C0 23.5836 0.154463 23.2631 0.45971 22.9942C0.764957 22.7216 1.17318 22.5153 1.67702 22.3753C2.68838 22.1175 3.80272 21.9849 5.01268 21.9849C6.57569 21.9849 7.81139 22.3311 8.71242 23.02C9.61346 23.7089 10.0621 24.7661 10.0621 26.1954C10.0621 27.6247 9.48474 28.7667 8.33362 29.625C7.18251 30.4833 5.77396 30.9143 4.11532 30.9143C3.26946 30.9143 2.37946 30.7375 1.44901 30.3838C1.39016 30.9511 1.36074 31.7174 1.36074 32.6825L1.37913 33.5482C1.37913 33.8318 1.37177 34.1265 1.36074 34.4323C1.3019 34.5133 1.2357 34.5723 1.16582 34.6091C1.09595 34.6459 1.04446 34.6717 1.01504 34.6901C0.985616 34.7086 0.941484 34.7233 0.882641 34.7343C0.823798 34.7454 0.783345 34.7528 0.757601 34.7528C0.687725 34.7749 0.603139 34.7896 0.511197 34.7896H0.20963C0.187564 33.9055 0.172851 33.1098 0.172851 32.4025L0.224339 28.8146L0.228014 28.8109ZM1.41223 29.1129C2.26913 29.6913 3.30256 29.9786 4.50148 29.9713C5.70041 29.9639 6.71544 29.5955 7.53924 28.8588C8.36304 28.122 8.77494 27.2158 8.77494 26.1438C8.77494 25.0719 8.35201 24.2688 7.50246 23.7383C6.6566 23.2079 5.64156 22.9426 4.45735 22.9426C3.27313 22.9426 2.22868 23.2152 1.32397 23.7568C1.38281 24.523 1.41223 26.3096 1.41223 29.1129Z" fill="#FF9D33"/>
<path d="M12.1437 23.9335C12.1437 22.7658 11.9855 21.9811 11.6656 21.5833C11.8201 21.3586 12.0812 21.248 12.46 21.248C12.5298 21.248 12.6071 21.2554 12.688 21.2665C12.9822 21.5612 13.1293 22.4158 13.1293 23.8304C13.1293 24.5966 13.0925 25.4881 13.0227 26.5011C12.8829 28.2693 12.8093 29.566 12.8093 30.3911C12.8093 32.6198 13.2396 33.7323 14.0965 33.7323L14.7512 33.6071C14.8578 33.6071 14.9461 33.6549 15.016 33.747C14.9792 34.1707 14.6372 34.3843 13.9825 34.3843C13.3279 34.3843 12.8277 34.1854 12.4747 33.7912C12.1216 33.3971 11.901 32.8998 11.8127 32.3067C11.7244 31.7099 11.6803 31.22 11.6803 30.8295C11.6803 30.439 11.6877 30.0154 11.6987 29.5476C11.7097 29.0834 11.7649 28.413 11.8568 27.5399C12.0444 25.7717 12.14 24.5708 12.14 23.9335H12.1437Z" fill="#FF9D33"/>
<path d="M21.3416 29.4149L21.2533 31.4483C21.2533 32.4761 21.371 33.1649 21.6064 33.5186C21.7461 33.7543 21.941 33.8722 22.1874 33.8722C22.2573 33.8722 22.3566 33.8538 22.489 33.8207C22.7354 33.7507 22.9414 33.7838 23.1069 33.9275C23.026 34.3401 22.6141 34.5464 21.8712 34.5464C21.3636 34.5464 21.029 34.3327 20.8635 33.9091C20.7348 33.5923 20.6391 33.1944 20.5803 32.7155C20.5215 32.2366 20.4736 31.9125 20.4405 31.7356C19.6756 33.1981 18.9327 34.0859 18.2156 34.4064C17.8515 34.5721 17.4285 34.6532 16.9431 34.6532C16.4576 34.6532 16.0862 34.4211 15.8214 33.9533C15.5566 33.4891 15.4242 32.8076 15.4242 31.9125C15.4242 31.0173 15.5713 30.078 15.8655 29.0907C16.1597 28.1071 16.59 27.2746 17.1527 26.5968C17.7191 25.919 18.3369 25.5801 19.0063 25.5801C19.9698 25.5801 20.6134 25.9816 20.9297 26.781C21.2018 27.4662 21.3342 28.3429 21.3342 29.4149H21.3416ZM17.0166 28.8402C16.8511 29.4812 16.7298 30.089 16.6452 30.66C16.5643 31.231 16.5201 31.7393 16.5201 32.1814C16.5201 32.6234 16.6121 33.0029 16.7923 33.3233C16.9762 33.6401 17.2115 33.8022 17.5058 33.8022C18.142 33.8022 18.7525 33.2018 19.3409 31.9972C19.9293 30.7963 20.2236 29.6764 20.2236 28.6376C20.2236 27.9672 20.047 27.4109 19.694 26.9762C19.4586 26.6926 19.1497 26.5526 18.7672 26.5526C18.3847 26.5526 18.039 26.7736 17.7264 27.2157C17.4138 27.6577 17.1748 28.1992 17.0129 28.8439L17.0166 28.8402Z" fill="#FF9D33"/>
<path d="M30.944 34.0122C30.7307 34.2369 30.4917 34.3475 30.2195 34.3475C29.712 34.3475 29.3369 34.0749 29.0905 33.5333C28.8441 32.9918 28.7006 32.3324 28.6565 31.5515C28.6161 30.7742 28.5903 29.9969 28.5756 29.216C28.5646 28.4387 28.502 27.7793 28.3917 27.2341C28.2814 26.6926 28.0718 26.42 27.7665 26.42C27.3546 26.42 27.0052 26.7921 26.7147 27.5325C26.4242 28.2766 26.2219 29.1018 26.1042 30.008C25.7732 32.5424 25.4569 33.9643 25.1517 34.2701C24.9384 34.3769 24.7582 34.4285 24.6037 34.4285C24.4492 34.4285 24.3205 34.4101 24.2139 34.3769C23.9675 33.2939 23.8093 31.4225 23.7358 28.7702C23.7137 27.4515 23.688 26.5968 23.6659 26.2063C23.9123 26.0406 24.1256 25.9595 24.3021 25.9595C24.4787 25.9595 24.6184 25.978 24.7251 26.0111C24.7839 26.5195 24.817 27.5546 24.8207 29.1239C24.828 30.6932 24.8354 31.592 24.8464 31.8278C24.9053 31.581 24.9788 31.1794 25.0671 30.6269C25.1554 30.0743 25.2363 29.6175 25.3061 29.2565C25.376 28.8992 25.49 28.4755 25.6408 27.993C25.7953 27.5104 25.9644 27.1236 26.152 26.8363C26.3396 26.5489 26.6007 26.2984 26.928 26.0921C27.259 25.8859 27.6267 25.7827 28.0386 25.7827C28.5903 25.7827 28.9948 26.0332 29.2486 26.5342C29.5024 27.0352 29.6384 27.6578 29.6642 28.3982C29.6863 29.1423 29.701 29.8938 29.7083 30.66C29.7157 31.4262 29.8076 32.1262 29.9915 32.7634C30.1754 33.4007 30.488 33.8133 30.9367 34.0012L30.944 34.0122Z" fill="#FF9D33"/>
<path d="M32.1098 27.0979C31.5803 27.0979 31.2198 26.969 31.0323 26.7074C31.0323 26.5196 31.1132 26.3722 31.2713 26.2654C31.4295 26.1586 31.6023 26.0923 31.7936 26.0628C31.9811 26.0333 32.2864 26.0075 32.713 25.9817C32.7498 25.6649 32.7681 25.256 32.7755 24.7514C32.7829 24.2504 32.7902 23.8231 32.8013 23.4694C32.838 22.5374 32.9778 21.9664 33.2242 21.7528C33.3308 21.657 33.4448 21.6128 33.5699 21.6128C33.6949 21.6128 33.8016 21.6238 33.8972 21.6496C33.934 22.4969 33.9487 23.0126 33.9487 23.1894L33.842 25.8418C33.8641 25.8528 33.9303 25.8602 34.0369 25.8602L35.3094 25.8086C36.2289 25.8086 36.6849 25.9486 36.6849 26.2322C36.6849 26.6338 36.5194 26.8695 36.1921 26.9395C36.0376 26.9764 35.8611 26.9911 35.6551 26.9911C35.4492 26.9911 35.1844 26.9653 34.8608 26.91C34.5371 26.8585 34.3054 26.829 34.162 26.829C34.0186 26.829 33.9266 26.8364 33.8788 26.8474C33.842 27.19 33.8273 27.5289 33.8273 27.8641C33.8273 28.1994 33.8347 28.6193 33.8531 29.1203C33.8715 29.6213 33.9193 30.2181 33.9928 30.9143C34.07 31.6105 34.2355 32.2073 34.4967 32.7083C34.7541 33.2093 35.0851 33.4598 35.486 33.4598C35.6845 33.4598 35.9199 33.3787 36.1921 33.2203C36.4642 33.0619 36.6702 32.9809 36.8173 32.9809C36.9644 32.9809 37.0931 33.014 37.2071 33.0767C37.3174 33.143 37.3763 33.2166 37.3763 33.2977C37.3763 33.5445 37.1262 33.7839 36.626 34.0123C36.1259 34.2407 35.6993 34.3586 35.3462 34.3586C34.0517 34.3586 33.2462 33.1319 32.9263 30.6822C32.8307 29.9749 32.7608 28.7593 32.713 27.039C32.5254 27.0758 32.3232 27.0905 32.1135 27.0905L32.1098 27.0979Z" fill="#FF9D33"/>
<path d="M42.6317 27.0793C42.6317 26.232 42.9038 25.8047 43.4445 25.8047C43.5511 25.8047 43.6578 25.8157 43.7607 25.8415V26.9909C43.7607 27.6171 43.8416 28.8659 44.0071 30.7409C44.1726 32.616 44.2535 34.0195 44.2535 34.9478C44.2535 36.4323 43.9924 37.4601 43.4776 38.0237C42.959 38.591 42.08 38.871 40.837 38.871C39.5939 38.871 38.4281 38.4694 37.3322 37.6701C37.5455 37.4122 37.8213 37.2796 38.1633 37.2796C38.292 37.2906 38.498 37.3791 38.7812 37.5448C39.616 38.0384 40.3111 38.289 40.8627 38.289C41.6865 38.289 42.2676 38.0311 42.6096 37.5117C42.9517 36.9923 43.1208 36.1192 43.1208 34.8962C43.1208 34.6015 43.0914 33.5406 43.0326 31.7134C43.0215 31.7503 42.9811 31.8976 42.9075 32.1629C42.8376 32.4281 42.7825 32.6012 42.7494 32.6859C42.7126 32.767 42.6538 32.9217 42.5655 33.1464C42.4772 33.3711 42.3853 33.5295 42.2933 33.6216C42.2014 33.7137 42.0764 33.8279 41.9219 33.9568C41.6645 34.1926 41.3371 34.3105 40.9436 34.3105C40.5501 34.3105 40.2338 34.2589 39.9985 34.1521C39.7631 34.0453 39.5645 33.8795 39.4064 33.6585C39.2482 33.4338 39.1048 33.198 38.9834 32.9512C38.8584 32.7044 38.7628 32.3876 38.6929 32.0045C38.623 31.6213 38.5679 31.2714 38.5237 30.9509C38.4833 30.6341 38.4538 30.2436 38.4355 29.7831C38.4171 29.3227 38.406 28.9396 38.3987 28.6338C38.3913 28.3281 38.3913 27.9376 38.3913 27.4661V26.4051C38.509 26.2062 38.7223 26.1031 39.0276 26.1031C39.4505 26.1031 39.6638 26.2578 39.6638 26.5635L39.5571 28.2802C39.5571 29.7758 39.7153 31.0688 40.0353 32.1518C40.3552 33.2348 40.6825 33.78 41.0245 33.78C41.282 33.78 41.5137 33.64 41.7123 33.3564C41.9109 33.0727 42.0653 32.6749 42.172 32.1629C42.2786 31.6508 42.3669 31.1646 42.4368 30.7041C42.5067 30.2436 42.5545 29.7095 42.5765 29.0943C42.6133 28.1623 42.628 27.4918 42.628 27.0793H42.6317Z" fill="#FF9D33"/>
<path d="M42.4515 42.9968C44.18 42.8016 45.6915 41.5344 47.0007 40.4735C48.6594 39.1326 50.0716 37.4749 51.1896 35.6588C52.0833 34.2037 52.4768 32.7118 52.5945 31.1978C53.3631 31.2236 54.2017 31.2677 55.2388 31.0725C56.8937 30.8589 58.6259 30.1221 59.7439 29.3927C62.1602 27.8198 63.5503 25.0054 64.33 22.3162C65.231 19.2071 65.1538 15.9728 64.5102 12.8269C64.0762 10.7124 63.3002 8.67894 62.5757 6.65288C61.9763 4.98045 61.4908 3.30065 60.9906 1.61349C61.0201 1.18986 61.009 0.755177 60.9539 0.309442C60.9024 -0.0994553 60.3581 -0.106823 60.314 0.309442C60.1007 2.28394 59.6814 3.87163 58.4016 5.42986C57.4527 6.58288 56.2538 7.53329 55.1431 8.52054C52.2414 11.0992 50.9432 13.9099 50.3769 17.752C49.6229 22.854 52.3444 27.9597 50.855 32.9623C50.2334 35.0657 48.652 36.8781 47.1221 38.3811C45.5959 39.8878 43.6688 40.724 42.0653 42.0759C41.7196 42.3669 41.9844 43.0521 42.4478 42.9968H42.4515ZM54.323 26.5046C55.8345 25.4511 56.6988 24.4417 57.1769 22.5999C57.6293 20.8648 57.8131 19.0819 57.9823 17.3026C58.2287 14.7019 58.1919 11.3423 60.0087 9.26834C60.0676 9.19835 60.1595 9.28676 60.1264 9.35675C58.534 12.8048 58.9606 16.8274 58.5156 20.5075C58.2287 22.8688 57.5741 26.8251 54.7165 27.444C54.1355 27.5693 53.8449 26.8399 54.323 26.5046Z" fill="#FF9D33"/>
</svg>
