<svg width="110" height="73" viewBox="0 0 110 73" fill="none" xmlns="http://www.w3.org/2000/svg">
<path d="M0.38587 48.9116C0.38587 45.7909 0.255174 43.0392 0 40.6565C0 40.0374 0.261398 39.4933 0.777971 39.0368C1.29454 38.574 1.98538 38.2238 2.83804 37.9861C4.54957 37.5484 6.43538 37.3232 8.483 37.3232C11.1281 37.3232 13.2193 37.9111 14.7441 39.0806C16.2689 40.25 17.0282 42.0449 17.0282 44.4714C17.0282 46.8978 16.0511 48.8365 14.1031 50.2937C12.155 51.7508 9.77131 52.4825 6.9644 52.4825C5.53293 52.4825 4.02678 52.1823 2.45217 51.582C2.35258 52.545 2.30279 53.8459 2.30279 55.4844L2.33391 56.954C2.33391 57.4355 2.32146 57.9359 2.30279 58.4549C2.20321 58.5925 2.09118 58.6926 1.97293 58.7551C1.85468 58.8176 1.76755 58.8614 1.71776 58.8927C1.66797 58.9239 1.59328 58.949 1.4937 58.9677C1.39412 58.9865 1.32566 58.999 1.28209 58.999C1.16384 59.0365 1.0207 59.0615 0.865103 59.0615H0.354759C0.317417 57.5606 0.292518 56.2098 0.292518 55.0091L0.37965 48.9178L0.38587 48.9116ZM2.38992 49.4244C3.84006 50.4062 5.58894 50.894 7.61789 50.8815C9.64684 50.869 11.3646 50.2436 12.7587 48.9929C14.1528 47.7421 14.8499 46.2037 14.8499 44.3838C14.8499 42.564 14.1342 41.2006 12.6965 40.3001C11.265 39.3995 9.54725 38.9492 7.5432 38.9492C5.53915 38.9492 3.77161 39.412 2.24056 40.3313C2.34014 41.6321 2.38992 44.6652 2.38992 49.4244Z" fill="#FF9D33"/>
<path d="M20.5509 40.6313C20.5509 38.6488 20.2832 37.3168 19.7418 36.6414C20.0032 36.2599 20.445 36.0723 21.0861 36.0723C21.2043 36.0723 21.335 36.0848 21.472 36.1035C21.9699 36.6038 22.2188 38.0547 22.2188 40.4562C22.2188 41.757 22.1566 43.2704 22.0383 44.9902C21.8018 47.9921 21.6774 50.1934 21.6774 51.5943C21.6774 55.3778 22.4055 57.2665 23.8557 57.2665L24.9635 57.0538C25.144 57.0538 25.2934 57.1351 25.4116 57.2915C25.3494 58.0107 24.7706 58.3734 23.6627 58.3734C22.5549 58.3734 21.7085 58.0357 21.111 57.3665C20.5135 56.6974 20.1401 55.8531 19.9907 54.8462C19.8413 53.8331 19.7667 53.0014 19.7667 52.3385C19.7667 51.6756 19.7791 50.9564 19.7978 50.1621C19.8164 49.3741 19.9098 48.2359 20.0654 46.7538C20.3828 43.752 20.5446 41.7132 20.5446 40.6313H20.5509Z" fill="#FF9D33"/>
<path d="M36.1165 49.937L35.9672 53.3891C35.9672 55.1339 36.1663 56.3034 36.5646 56.9038C36.8011 57.304 37.131 57.5041 37.548 57.5041C37.6662 57.5041 37.8343 57.4729 38.0583 57.4166C38.4753 57.2977 38.8238 57.354 39.1039 57.5979C38.967 58.2983 38.2699 58.6486 37.0127 58.6486C36.1539 58.6486 35.5875 58.2858 35.3074 57.5667C35.0896 57.0288 34.9278 56.3534 34.8282 55.5404C34.7286 54.7274 34.6477 54.1771 34.5917 53.8769C33.2971 56.3597 32.0399 57.8668 30.8263 58.4109C30.2102 58.6923 29.4944 58.8299 28.6729 58.8299C27.8514 58.8299 27.2228 58.4359 26.7746 57.6417C26.3265 56.8537 26.1025 55.6968 26.1025 54.1771C26.1025 52.6574 26.3514 51.0627 26.8493 49.3867C27.3472 47.7169 28.0754 46.3035 29.0276 45.1528C29.9861 44.0021 31.0317 43.4268 32.1644 43.4268C33.795 43.4268 34.8842 44.1084 35.4195 45.4655C35.88 46.6287 36.1041 48.1171 36.1041 49.937H36.1165ZM28.7974 48.9614C28.5173 50.0496 28.3119 51.0814 28.1688 52.0508C28.0318 53.0201 27.9572 53.8832 27.9572 54.6336C27.9572 55.3841 28.1128 56.0282 28.4177 56.5723C28.7289 57.1101 29.1272 57.3853 29.6251 57.3853C30.7018 57.3853 31.735 56.3659 32.7308 54.3209C33.7266 52.2822 34.2245 50.381 34.2245 48.6174C34.2245 47.4792 33.9257 46.5349 33.3283 45.797C32.9299 45.3154 32.4072 45.0778 31.7599 45.0778C31.1126 45.0778 30.5276 45.453 29.9986 46.2035C29.4695 46.9539 29.065 47.8732 28.7911 48.9676L28.7974 48.9614Z" fill="#FF9D33"/>
<path d="M52.3668 57.7415C52.0058 58.123 51.6012 58.3106 51.1407 58.3106C50.2818 58.3106 49.647 57.8479 49.23 56.9286C48.813 56.0092 48.5703 54.8898 48.4956 53.564C48.4271 52.2444 48.3836 50.9249 48.3587 49.5991C48.34 48.2795 48.2342 47.1601 48.0475 46.2345C47.8608 45.3152 47.506 44.8524 46.9894 44.8524C46.2924 44.8524 45.7011 45.4841 45.2094 46.7411C44.7178 48.0043 44.3754 49.4052 44.1763 50.9436C43.6161 55.2463 43.0809 57.6603 42.5643 58.1793C42.2034 58.3607 41.8984 58.4482 41.637 58.4482C41.3756 58.4482 41.1578 58.417 40.9773 58.3607C40.5603 56.522 40.2927 53.3451 40.1682 48.8423C40.1308 46.6035 40.0873 45.1526 40.0499 44.4897C40.4669 44.2083 40.8279 44.0707 41.1266 44.0707C41.4254 44.0707 41.6619 44.102 41.8424 44.1582C41.942 45.0213 41.998 46.7786 42.0042 49.4427C42.0166 52.1069 42.0291 53.6328 42.0478 54.033C42.1473 53.614 42.2718 52.9324 42.4212 51.9943C42.5706 51.0562 42.7075 50.2807 42.8257 49.6679C42.944 49.0612 43.1369 48.3421 43.3921 47.5228C43.6535 46.7036 43.9398 46.0469 44.2572 45.5591C44.5746 45.0713 45.0165 44.646 45.5704 44.2958C46.1305 43.9456 46.7529 43.7705 47.45 43.7705C48.3835 43.7705 49.0682 44.1958 49.4976 45.0463C49.927 45.8968 50.1573 46.9537 50.2009 48.2107C50.2382 49.474 50.2631 50.7498 50.2756 52.0506C50.288 53.3514 50.4436 54.5396 50.7548 55.6215C51.066 56.7034 51.595 57.4038 52.3543 57.7228L52.3668 57.7415Z" fill="#FF9D33"/>
<path d="M54.3397 46.0034C53.4434 46.0034 52.8335 45.7845 52.5161 45.3405C52.5161 45.0215 52.653 44.7713 52.9207 44.59C53.1883 44.4086 53.4808 44.2961 53.8044 44.246C54.1218 44.196 54.6384 44.1522 55.3604 44.1085C55.4226 43.5706 55.4537 42.8764 55.4662 42.0197C55.4786 41.1691 55.4911 40.4437 55.5097 39.8433C55.572 38.2611 55.8085 37.2918 56.2255 36.9291C56.406 36.7665 56.5989 36.6914 56.8105 36.6914C57.0221 36.6914 57.2026 36.7102 57.3644 36.7539C57.4267 38.1923 57.4516 39.0679 57.4516 39.3681L57.2711 43.8708C57.3084 43.8896 57.4204 43.9021 57.6009 43.9021L59.7544 43.8145C61.3103 43.8145 62.082 44.0522 62.082 44.5337C62.082 45.2154 61.802 45.6156 61.2481 45.7344C60.9867 45.797 60.6879 45.822 60.3394 45.822C59.9909 45.822 59.5427 45.7782 58.9951 45.6844C58.4474 45.5969 58.0553 45.5468 57.8125 45.5468C57.5698 45.5468 57.4142 45.5593 57.3333 45.5781C57.2711 46.1597 57.2462 46.735 57.2462 47.3041C57.2462 47.8732 57.2586 48.5862 57.2897 49.4367C57.3209 50.2872 57.4018 51.3003 57.5262 52.4823C57.6569 53.6643 57.937 54.6774 58.3789 55.5279C58.8146 56.3784 59.3747 56.8037 60.0531 56.8037C60.3892 56.8037 60.7875 56.6661 61.2481 56.3972C61.7086 56.1283 62.0572 55.9907 62.3061 55.9907C62.5551 55.9907 62.7729 56.047 62.9658 56.1533C63.1525 56.2659 63.2521 56.391 63.2521 56.5285C63.2521 56.9475 62.8289 57.354 61.9825 57.7418C61.136 58.1295 60.4141 58.3296 59.8166 58.3296C57.6258 58.3296 56.2628 56.2471 55.7213 52.0883C55.5595 50.8876 55.4413 48.8238 55.3604 45.9033C55.043 45.9658 54.7007 45.9908 54.3459 45.9908L54.3397 46.0034Z" fill="#FF9D33"/>
<path d="M72.1459 45.9719C72.1459 44.5335 72.6064 43.8081 73.5213 43.8081C73.7018 43.8081 73.8823 43.8269 74.0566 43.8706V45.8218C74.0566 46.885 74.1935 49.005 74.4736 52.1882C74.7536 55.3714 74.8905 57.7541 74.8905 59.3301C74.8905 61.8504 74.4487 63.5952 73.5773 64.552C72.6998 65.5151 71.2123 65.9904 69.1087 65.9904C67.005 65.9904 65.0321 65.3087 63.1774 63.9517C63.5384 63.5139 64.0052 63.2888 64.584 63.2888C64.8018 63.3075 65.1504 63.4576 65.6296 63.739C67.0424 64.5771 68.2187 65.0023 69.1522 65.0023C70.5464 65.0023 71.5297 64.5645 72.1085 63.6828C72.6873 62.801 72.9736 61.3188 72.9736 59.2425C72.9736 58.7422 72.9238 56.9411 72.8243 53.8392C72.8056 53.9018 72.7371 54.1519 72.6127 54.6022C72.4944 55.0525 72.401 55.3464 72.345 55.4902C72.2828 55.6278 72.1832 55.8905 72.0338 56.272C71.8845 56.6535 71.7289 56.9224 71.5733 57.0787C71.4177 57.2351 71.2061 57.4289 70.9447 57.6478C70.509 58.0481 69.9551 58.2482 69.2892 58.2482C68.6232 58.2482 68.088 58.1606 67.6897 57.9793C67.2913 57.7979 66.9552 57.5165 66.6876 57.1413C66.42 56.7598 66.1773 56.3595 65.9719 55.9405C65.7603 55.5215 65.5985 54.9837 65.4802 54.3333C65.362 53.6829 65.2686 53.0888 65.1939 52.5447C65.1255 52.0069 65.0757 51.344 65.0446 50.5622C65.0134 49.7805 64.9948 49.1301 64.9823 48.611C64.9699 48.092 64.9699 47.4291 64.9699 46.6286V44.8275C65.169 44.4898 65.53 44.3147 66.0466 44.3147C66.7623 44.3147 67.1233 44.5773 67.1233 45.0964L66.9428 48.0107C66.9428 50.5497 67.2104 52.7448 67.7519 54.5835C68.2934 56.4221 68.8473 57.3476 69.4261 57.3476C69.8617 57.3476 70.2539 57.11 70.5899 56.6284C70.926 56.1469 71.1874 55.4715 71.3679 54.6022C71.5484 53.7329 71.6978 52.9074 71.816 52.1257C71.9343 51.344 72.0152 50.4372 72.0525 49.3928C72.1147 47.8105 72.1396 46.6724 72.1396 45.9719H72.1459Z" fill="#FF9D33"/>
<path d="M71.841 72.9946C74.7662 72.6632 77.3241 70.5119 79.5398 68.7108C82.3467 66.4344 84.7367 63.6202 86.6287 60.537C88.1411 58.0668 88.807 55.534 89.0062 52.9636C90.3069 53.0074 91.726 53.0825 93.4811 52.751C96.2817 52.3883 99.2131 51.1375 101.105 49.8993C105.194 47.2289 107.547 42.451 108.866 37.8857C110.391 32.6074 110.26 27.1166 109.171 21.7758C108.437 18.1861 107.124 14.734 105.897 11.2944C104.883 8.45518 104.061 5.60343 103.215 2.73918C103.265 2.01999 103.246 1.28204 103.153 0.525332C103.066 -0.168843 102.145 -0.18135 102.07 0.525332C101.709 3.87738 100.999 6.57277 98.8335 9.21814C97.2277 11.1756 95.1988 12.7891 93.3192 14.4651C88.4087 18.8428 86.2117 23.6144 85.2532 30.1372C83.9774 38.7987 88.5829 47.4665 86.0623 55.9592C85.0105 59.5301 82.3343 62.607 79.7452 65.1586C77.1623 67.7164 73.9011 69.136 71.1875 71.4312C70.6025 71.9252 71.0506 73.0885 71.8348 72.9946H71.841ZM91.9313 44.9963C94.4893 43.2077 95.9519 41.4941 96.761 38.3672C97.5265 35.4217 97.8377 32.3948 98.124 29.3742C98.541 24.959 98.4787 19.2555 101.553 15.7346C101.653 15.6158 101.808 15.7659 101.752 15.8847C99.0575 21.7383 99.7795 28.5675 99.0264 34.815C98.541 38.8237 97.4331 45.5404 92.5973 46.591C91.6139 46.8036 91.1222 45.5654 91.9313 44.9963Z" fill="#FF9D33"/>
</svg>
