<svg width="27" height="28" viewBox="0 0 27 28" fill="none" xmlns="http://www.w3.org/2000/svg">
<rect x="5" y="5" width="17" height="18" fill="#1E201E"/>
<path fill-rule="evenodd" clip-rule="evenodd" d="M17.2607 7.63135H9.33419C8.06901 7.63135 7.03967 8.66068 7.03967 9.92587V17.8524C7.03967 19.1176 8.06901 20.1472 9.33419 20.1472H17.2607C18.5259 20.1472 19.5555 19.1179 19.5555 17.8524V9.92587C19.5555 8.66068 18.5262 7.63135 17.2607 7.63135ZM13.2975 18.0096C11.0258 18.0096 9.17753 16.1613 9.17753 13.8893C9.17753 11.6176 11.0258 9.76926 13.2975 9.76926C15.5695 9.76926 17.4178 11.6176 17.4178 13.8893C17.4178 16.161 15.5692 18.0096 13.2975 18.0096ZM16.5753 9.64617C16.5753 10.1837 17.0126 10.621 17.5504 10.621C18.0879 10.621 18.5252 10.1837 18.5252 9.64617C18.5252 9.10869 18.0879 8.67136 17.5504 8.67136C17.0126 8.67136 16.5753 9.10869 16.5753 9.64617Z" fill="#FF9D33"/>
<path d="M13.2977 11.5103C11.9862 11.5103 10.9184 12.5775 10.9184 13.8889C10.9184 15.2009 11.9862 16.2685 13.2977 16.2685C14.6097 16.2685 15.6766 15.2009 15.6766 13.8889C15.6766 12.5778 14.6094 11.5103 13.2977 11.5103Z" fill="#FF9D33"/>
<path fill-rule="evenodd" clip-rule="evenodd" d="M6.10352e-05 13.8536C6.10352e-05 6.50993 5.95384 0.556152 13.2975 0.556152C20.6412 0.556152 26.595 6.50993 26.595 13.8536C26.595 21.1973 20.6412 27.1511 13.2975 27.1511C5.95384 27.1511 6.10352e-05 21.1973 6.10352e-05 13.8536ZM17.2609 21.8884C19.4863 21.8884 21.2964 20.0784 21.2964 17.8529V9.92636C21.2964 7.70118 19.4863 5.89081 17.2609 5.89081H9.33434C7.10915 5.89081 5.29878 7.70118 5.29878 9.92636V17.8529C5.29878 20.0784 7.10915 21.8884 9.33434 21.8884H17.2609Z" fill="#FF9D33"/>
</svg>
