<svg width="27" height="28" viewBox="0 0 27 28" fill="none" xmlns="http://www.w3.org/2000/svg">
<path d="M13.2386 27.0336C20.55 27.0336 26.4771 21.1065 26.4771 13.7951C26.4771 6.4837 20.55 0.556641 13.2386 0.556641C5.92718 0.556641 0.00012207 6.4837 0.00012207 13.7951C0.00012207 21.1065 5.92718 27.0336 13.2386 27.0336Z" fill="#FF9D33"/>
<path d="M14.3072 18.2837C13.3064 18.2063 12.8859 17.71 12.101 17.2335C11.6696 19.4969 11.1424 21.6666 9.58085 22.8C9.09825 19.3791 10.2883 16.8097 10.841 14.0824C9.89896 12.4965 10.9543 9.30457 12.9413 10.0911C15.3869 11.0582 10.824 15.9878 13.8872 16.6035C17.085 17.2463 18.3905 11.0547 16.4073 9.04074C13.5419 6.13313 8.06675 8.97466 8.74002 13.137C8.90403 14.1546 9.95559 14.4635 9.16008 15.8676C7.32621 15.4615 6.77919 14.0151 6.84952 12.0869C6.96303 8.93053 9.68562 6.7205 12.4165 6.41466C15.8702 6.02811 19.1117 7.68286 19.5591 10.9315C20.0625 14.598 18 18.5688 14.3072 18.2837Z" fill="#1B252C"/>
</svg>
