<svg width="27" height="28" viewBox="0 0 27 28" fill="none" xmlns="http://www.w3.org/2000/svg">
<path d="M13.2384 27.0331C20.5498 27.0331 26.4769 21.106 26.4769 13.7946C26.4769 6.48321 20.5498 0.556152 13.2384 0.556152C5.927 0.556152 -6.10352e-05 6.48321 -6.10352e-05 13.7946C-6.10352e-05 21.106 5.927 27.0331 13.2384 27.0331Z" fill="#FF9D33"/>
<path d="M22.0903 10.04C21.523 10.2916 20.9127 10.4618 20.2727 10.5377C20.9262 10.1462 21.4276 9.52677 21.6643 8.78742C21.0529 9.15013 20.3754 9.41326 19.6549 9.55509C19.0777 8.94034 18.2552 8.55615 17.3446 8.55615C15.5973 8.55615 14.1802 9.97326 14.1802 11.7205C14.1802 11.9685 14.2083 12.21 14.2626 12.4417C11.6327 12.3098 9.3009 11.0501 7.74008 9.13503C7.46774 9.60229 7.31152 10.1462 7.31152 10.7261C7.31152 11.8236 7.87058 12.7926 8.71919 13.3599C8.20072 13.3436 7.71246 13.2013 7.28603 12.9637C7.2858 12.9772 7.2858 12.9906 7.2858 13.0038C7.2858 14.537 8.37701 15.8159 9.82432 16.1064C9.55907 16.179 9.27895 16.2175 8.99081 16.2175C8.78645 16.2175 8.58845 16.1979 8.39541 16.1611C8.79801 17.418 9.96639 18.3329 11.3514 18.3586C10.2682 19.2075 8.90397 19.7132 7.42102 19.7132C7.16615 19.7132 6.91364 19.6983 6.66656 19.6688C8.06621 20.567 9.72993 21.0907 11.5168 21.0907C17.3372 21.0907 20.5203 16.269 20.5203 12.087C20.5203 11.9499 20.5172 11.8133 20.511 11.6778C21.1298 11.2318 21.6662 10.6746 22.0903 10.04Z" fill="#1B252C"/>
</svg>
