<svg width="27" height="28" viewBox="0 0 27 28" fill="none" xmlns="http://www.w3.org/2000/svg">
<path d="M13.2385 27.0331C20.5499 27.0331 26.4769 21.106 26.4769 13.7946C26.4769 6.48321 20.5499 0.556152 13.2385 0.556152C5.92706 0.556152 0 6.48321 0 13.7946C0 21.106 5.92706 27.0331 13.2385 27.0331Z" fill="#FF9D33"/>
<path fill-rule="evenodd" clip-rule="evenodd" d="M12.7384 19.6009H13.7775C13.7775 19.6009 14.0913 19.5664 14.2516 19.3937C14.3991 19.2351 14.3943 18.9373 14.3943 18.9373C14.3943 18.9373 14.374 17.5431 15.0211 17.3378C15.659 17.1355 16.4781 18.6852 17.3463 19.2811C18.0028 19.7321 18.5017 19.6332 18.5017 19.6332L20.8231 19.6009C20.8231 19.6009 22.0375 19.5261 21.4617 18.5713C21.4145 18.4931 21.1264 17.8649 19.7357 16.5741C18.2801 15.2231 18.475 15.4416 20.2284 13.1046C21.2963 11.6814 21.7232 10.8124 21.5899 10.4403C21.4627 10.0858 20.6773 10.1795 20.6773 10.1795L18.0635 10.1958C18.0635 10.1958 17.8697 10.1694 17.726 10.2553C17.5856 10.3395 17.4952 10.5359 17.4952 10.5359C17.4952 10.5359 17.0815 11.6372 16.5298 12.5739C15.3659 14.5503 14.9005 14.6546 14.7103 14.5319C14.2678 14.2458 14.3783 13.3828 14.3783 12.7697C14.3783 10.8544 14.6688 10.0559 13.8126 9.84914C13.5285 9.78047 13.3194 9.73516 12.5928 9.72784C11.6602 9.71816 10.8708 9.73067 10.4238 9.94967C10.1265 10.0953 9.89711 10.4198 10.0368 10.4384C10.2096 10.4615 10.6008 10.5439 10.8083 10.8264C11.0761 11.1907 11.0667 12.0091 11.0667 12.0091C11.0667 12.0091 11.2205 14.2638 10.7073 14.5439C10.3549 14.736 9.87162 14.3438 8.83398 12.5507C8.3023 11.6323 7.90089 10.617 7.90089 10.617C7.90089 10.617 7.82348 10.4273 7.68543 10.3258C7.51788 10.2029 7.28378 10.1637 7.28378 10.1637L4.8 10.18C4.8 10.18 4.42714 10.1904 4.29027 10.3525C4.1685 10.4967 4.28059 10.795 4.28059 10.795C4.28059 10.795 6.22514 15.3444 8.4269 17.637C10.4458 19.7389 12.7384 19.6009 12.7384 19.6009Z" fill="#1B252C"/>
</svg>
